<svg width="500" height="500" viewBox="0 0 500 500" fill="none" xmlns="http://www.w3.org/2000/svg">
<path d="M152.269 459.584C147.893 468.969 151.933 480.196 161.62 483.857C194.399 496.245 229.487 501.629 264.609 499.573C305.983 497.151 346.106 484.481 381.368 462.703C416.63 440.925 445.924 410.722 466.615 374.811C487.307 338.901 498.745 298.409 499.903 256.981C501.06 215.552 491.899 174.485 473.245 137.476C454.59 100.466 427.028 68.6748 393.037 44.9622C359.045 21.2495 319.692 6.35957 278.518 1.63191C243.566 -2.38129 208.232 1.03527 174.812 11.5743C164.936 14.6887 160.276 25.6729 164.121 35.2877C167.967 44.9025 178.862 49.4935 188.778 46.5101C216.388 38.2034 245.466 35.5833 274.24 38.8871C309.238 42.9056 342.689 55.5621 371.581 75.7178C400.474 95.8736 423.902 122.896 439.758 154.354C455.614 185.812 463.401 220.719 462.417 255.934C461.434 291.148 451.711 325.566 434.123 356.09C416.536 386.613 391.635 412.286 361.663 430.797C331.69 449.309 297.585 460.078 262.417 462.137C233.504 463.829 204.618 459.59 177.515 449.755C167.78 446.223 156.646 450.199 152.269 459.584Z" fill="#EC003F"/>
<path d="M53.8889 127.456C45.1071 121.969 33.4712 124.611 28.6571 133.779C8.74302 171.704 -1.14199 214.215 0.104952 257.242C1.35189 300.269 13.6822 342.136 35.7591 378.845C41.0961 387.719 52.8655 389.682 61.3148 383.695C69.7641 377.709 71.6807 366.042 66.4616 357.098C48.5962 326.482 38.6218 291.787 37.5892 256.156C36.5566 220.525 44.505 185.311 60.5674 153.711C65.2597 144.48 62.6708 132.944 53.8889 127.456Z" fill="#EC003F"/>
<path d="M432.231 241.428C438.698 245.313 438.698 254.687 432.231 258.572L64.9457 479.212C56.4965 484.288 46.5758 475.37 50.7256 466.43L149.231 254.21C150.471 251.54 150.471 248.46 149.231 245.79L50.7256 33.5703C46.5758 24.6299 56.4965 15.7122 64.9457 20.7879L432.231 241.428Z" fill="#EC003F"/>
</svg>
